<?xml version="1.0" encoding="utf-8"?>
<!-- Generator: Circuit Diagram, cdlibrary.dll 1.0.0.0 -->
<!DOCTYPE svg PUBLIC "-//W3C//DTD SVG 1.1//EN" "http://www.w3.org/Graphics/SVG/1.1/DTD/svg11.dtd">
<svg version="1.1" width="820" height="460" xmlns="http://www.w3.org/2000/svg">
	<line x1="660" y1="50" x2="660" y2="51" style="stroke:rgb(0, 0, 0);stroke-linecap:square;stroke-width:2" />
	<line x1="660" y1="79" x2="660" y2="80" style="stroke:rgb(0, 0, 0);stroke-linecap:square;stroke-width:2" />
	<ellipse cx="660" cy="54" rx="3" ry="3" style="fill-opacity:0;fill:rgb(0, 0, 0);stroke:rgb(0, 0, 0);stroke-width:2" />
	<ellipse cx="660" cy="76" rx="3" ry="3" style="fill-opacity:0;fill:rgb(0, 0, 0);stroke:rgb(0, 0, 0);stroke-width:2" />
	<line x1="658" y1="57" x2="652" y2="74" style="stroke:rgb(0, 0, 0);stroke-linecap:square;stroke-width:2" />
	<line x1="660" y1="170" x2="660" y2="180" style="stroke:rgb(0, 0, 0);stroke-linecap:square;stroke-width:2" />
	<line x1="660" y1="30" x2="660" y2="50" style="stroke:rgb(0, 0, 0);stroke-linecap:square;stroke-width:2" />
	<line x1="660" y1="80" x2="660" y2="120" style="stroke:rgb(0, 0, 0);stroke-linecap:square;stroke-width:2" />
	<text x="688" y="100" style="font-family:Arial;font-size:12px;text-anchor:start" dominant-baseline="middle" transform="rotate(0, 688, 100)">lightSwitch</text>
	<line x1="660" y1="100" x2="677" y2="100" style="stroke:rgb(0, 0, 0);stroke-linecap:square;stroke-width:2" />
	<ellipse cx="680" cy="100" rx="3" ry="3" style="fill-opacity:0;fill:rgb(0, 0, 0);stroke:rgb(0, 0, 0);stroke-width:2" />
	<line x1="660" y1="180" x2="660" y2="182" style="stroke:rgb(0, 0, 0);stroke-linecap:square;stroke-width:2" />
	<path d="M 652,182 L 668,182 L 660,190 L 652,182" style="fill-opacity:0;fill:rgb(0, 0, 0);stroke:rgb(0, 0, 0);stroke-linecap:square;stroke-width:2" />
	<line x1="660" y1="120" x2="660" y2="125" style="stroke:rgb(0, 0, 0);stroke-linecap:square;stroke-width:2" />
	<line x1="660" y1="165" x2="660" y2="170" style="stroke:rgb(0, 0, 0);stroke-linecap:square;stroke-width:2" />
	<rect x="652" y="125" width="16" height="40" style="fill-opacity:0;fill:rgb(0, 0, 0);stroke:rgb(0, 0, 0);stroke-width:2" />
	<text x="646" y="145" style="font-family:Arial;font-size:11px;text-anchor:end" dominant-baseline="middle" transform="rotate(0, 646, 145)">10 kΩ</text>
	<text x="632" y="30" style="font-family:Arial;font-size:12px;text-anchor:end" dominant-baseline="middle" transform="rotate(0, 632, 30)">3V3</text>
	<line x1="643" y1="30" x2="660" y2="30" style="stroke:rgb(0, 0, 0);stroke-linecap:square;stroke-width:2" />
	<ellipse cx="640" cy="30" rx="3" ry="3" style="fill-opacity:0;fill:rgb(0, 0, 0);stroke:rgb(0, 0, 0);stroke-width:2" />
	<line x1="650" y1="260" x2="660" y2="260" style="stroke:rgb(0, 0, 0);stroke-linecap:square;stroke-width:2" />
	<line x1="620" y1="260" x2="621" y2="260" style="stroke:rgb(0, 0, 0);stroke-linecap:square;stroke-width:2" />
	<line x1="649" y1="260" x2="650" y2="260" style="stroke:rgb(0, 0, 0);stroke-linecap:square;stroke-width:2" />
	<ellipse cx="624" cy="260" rx="3" ry="3" style="fill-opacity:0;fill:rgb(0, 0, 0);stroke:rgb(0, 0, 0);stroke-width:2" />
	<ellipse cx="646" cy="260" rx="3" ry="3" style="fill-opacity:0;fill:rgb(0, 0, 0);stroke:rgb(0, 0, 0);stroke-width:2" />
	<line x1="627" y1="258" x2="644" y2="252" style="stroke:rgb(0, 0, 0);stroke-linecap:square;stroke-width:2" />
	<line x1="660" y1="420" x2="660" y2="430" style="stroke:rgb(0, 0, 0);stroke-linecap:square;stroke-width:2" />
	<line x1="660" y1="260" x2="660" y2="280" style="stroke:rgb(0, 0, 0);stroke-linecap:square;stroke-width:2" />
	<line x1="660" y1="330" x2="660" y2="370" style="stroke:rgb(0, 0, 0);stroke-linecap:square;stroke-width:2" />
	<text x="688" y="350" style="font-family:Arial;font-size:12px;text-anchor:start" dominant-baseline="middle" transform="rotate(0, 688, 350)">highBeamSwitch</text>
	<line x1="660" y1="350" x2="677" y2="350" style="stroke:rgb(0, 0, 0);stroke-linecap:square;stroke-width:2" />
	<ellipse cx="680" cy="350" rx="3" ry="3" style="fill-opacity:0;fill:rgb(0, 0, 0);stroke:rgb(0, 0, 0);stroke-width:2" />
	<line x1="660" y1="430" x2="660" y2="432" style="stroke:rgb(0, 0, 0);stroke-linecap:square;stroke-width:2" />
	<path d="M 652,432 L 668,432 L 660,440 L 652,432" style="fill-opacity:0;fill:rgb(0, 0, 0);stroke:rgb(0, 0, 0);stroke-linecap:square;stroke-width:2" />
	<line x1="660" y1="370" x2="660" y2="375" style="stroke:rgb(0, 0, 0);stroke-linecap:square;stroke-width:2" />
	<line x1="660" y1="415" x2="660" y2="420" style="stroke:rgb(0, 0, 0);stroke-linecap:square;stroke-width:2" />
	<rect x="652" y="375" width="16" height="40" style="fill-opacity:0;fill:rgb(0, 0, 0);stroke:rgb(0, 0, 0);stroke-width:2" />
	<text x="646" y="395" style="font-family:Arial;font-size:11px;text-anchor:end" dominant-baseline="middle" transform="rotate(0, 646, 395)">10 kΩ</text>
	<line x1="660" y1="280" x2="660" y2="285" style="stroke:rgb(0, 0, 0);stroke-linecap:square;stroke-width:2" />
	<line x1="660" y1="325" x2="660" y2="330" style="stroke:rgb(0, 0, 0);stroke-linecap:square;stroke-width:2" />
	<rect x="652" y="285" width="16" height="40" style="fill-opacity:0;fill:rgb(0, 0, 0);stroke:rgb(0, 0, 0);stroke-width:2" />
	<text x="646" y="305" style="font-family:Arial;font-size:11px;text-anchor:end" dominant-baseline="middle" transform="rotate(0, 646, 305)">20 kΩ</text>
	<text x="602" y="260" style="font-family:Arial;font-size:12px;text-anchor:end" dominant-baseline="middle" transform="rotate(0, 602, 260)">12v</text>
	<line x1="613" y1="260" x2="620" y2="260" style="stroke:rgb(0, 0, 0);stroke-linecap:square;stroke-width:2" />
	<ellipse cx="610" cy="260" rx="3" ry="3" style="fill-opacity:0;fill:rgb(0, 0, 0);stroke:rgb(0, 0, 0);stroke-width:2" />
	<text x="312" y="180" style="fill: rgba(0, 0, 0, 255);font-family:Arial;font-size:12px;text-anchor:end" dominant-baseline="middle" transform="rotate(0, 312, 180)">3V3</text>
	<line x1="323" y1="180" x2="360" y2="180" style="stroke:rgba(0, 0, 0, 255);stroke-linecap:square;stroke-width:2" />
	<ellipse cx="320" cy="180" rx="3" ry="3" style="fill-opacity:0;fill:rgba(0, 0, 0, 255);stroke:rgba(0, 0, 0, 255);stroke-width:2" />
	<text x="528" y="190" style="fill: rgba(0, 0, 0, 255);font-family:Arial;font-size:12px;text-anchor:start" dominant-baseline="middle" transform="rotate(0, 528, 190)">lightDriverPin</text>
	<line x1="440" y1="190" x2="517" y2="190" style="stroke:rgba(0, 0, 0, 255);stroke-linecap:square;stroke-width:2" />
	<ellipse cx="520" cy="190" rx="3" ry="3" style="fill-opacity:0;fill:rgba(0, 0, 0, 255);stroke:rgba(0, 0, 0, 255);stroke-width:2" />
	<line x1="440" y1="180" x2="500" y2="180" style="stroke:rgba(0, 0, 0, 255);stroke-linecap:square;stroke-width:2" />
	<line x1="440" y1="270" x2="500" y2="270" style="stroke:rgba(0, 0, 0, 255);stroke-linecap:square;stroke-width:2" />
	<text x="500" y="245" style="fill: rgba(0, 0, 0, 255);font-family:Arial;font-size:12px;text-anchor:middle" dominant-baseline="baseline" transform="rotate(0, 500, 245)">highBeamSwitch</text>
	<line x1="500" y1="253" x2="500" y2="270" style="stroke:rgba(0, 0, 0, 255);stroke-linecap:square;stroke-width:2" />
	<ellipse cx="500" cy="250" rx="3" ry="3" style="fill-opacity:0;fill:rgba(0, 0, 0, 255);stroke:rgba(0, 0, 0, 255);stroke-width:2" />
	<text x="500" y="155" style="fill: rgba(0, 0, 0, 255);font-family:Arial;font-size:12px;text-anchor:middle" dominant-baseline="baseline" transform="rotate(0, 500, 155)">lightSwitch</text>
	<line x1="500" y1="163" x2="500" y2="180" style="stroke:rgba(0, 0, 0, 255);stroke-linecap:square;stroke-width:2" />
	<ellipse cx="500" cy="160" rx="3" ry="3" style="fill-opacity:0;fill:rgba(0, 0, 0, 255);stroke:rgba(0, 0, 0, 255);stroke-width:2" />
	<text x="222" y="260" style="fill: rgba(0, 0, 0, 255);font-family:Arial;font-size:12px;text-anchor:end" dominant-baseline="middle" transform="rotate(0, 222, 260)">lcdSCL</text>
	<line x1="233" y1="260" x2="360" y2="260" style="stroke:rgba(0, 0, 0, 255);stroke-linecap:square;stroke-width:2" />
	<ellipse cx="230" cy="260" rx="3" ry="3" style="fill-opacity:0;fill:rgba(0, 0, 0, 255);stroke:rgba(0, 0, 0, 255);stroke-width:2" />
	<text x="222" y="250" style="fill: rgba(0, 0, 0, 255);font-family:Arial;font-size:12px;text-anchor:end" dominant-baseline="middle" transform="rotate(0, 222, 250)">lcdSDA</text>
	<line x1="233" y1="250" x2="360" y2="250" style="stroke:rgba(0, 0, 0, 255);stroke-linecap:square;stroke-width:2" />
	<ellipse cx="230" cy="250" rx="3" ry="3" style="fill-opacity:0;fill:rgba(0, 0, 0, 255);stroke:rgba(0, 0, 0, 255);stroke-width:2" />
	<text x="292" y="280" style="fill: rgba(0, 0, 0, 255);font-family:Arial;font-size:12px;text-anchor:end" dominant-baseline="middle" transform="rotate(0, 292, 280)">voltage</text>
	<line x1="303" y1="280" x2="360" y2="280" style="stroke:rgba(0, 0, 0, 255);stroke-linecap:square;stroke-width:2" />
	<ellipse cx="300" cy="280" rx="3" ry="3" style="fill-opacity:0;fill:rgba(0, 0, 0, 255);stroke:rgba(0, 0, 0, 255);stroke-width:2" />
	<text x="292" y="240" style="fill: rgba(0, 0, 0, 255);font-family:Arial;font-size:12px;text-anchor:end" dominant-baseline="middle" transform="rotate(0, 292, 240)">current</text>
	<line x1="303" y1="240" x2="360" y2="240" style="stroke:rgba(0, 0, 0, 255);stroke-linecap:square;stroke-width:2" />
	<ellipse cx="300" cy="240" rx="3" ry="3" style="fill-opacity:0;fill:rgba(0, 0, 0, 255);stroke:rgba(0, 0, 0, 255);stroke-width:2" />
	<text x="222" y="230" style="fill: rgba(0, 0, 0, 255);font-family:Arial;font-size:12px;text-anchor:end" dominant-baseline="middle" transform="rotate(0, 222, 230)">gpsRX</text>
	<line x1="233" y1="230" x2="360" y2="230" style="stroke:rgba(0, 0, 0, 255);stroke-linecap:square;stroke-width:2" />
	<ellipse cx="230" cy="230" rx="3" ry="3" style="fill-opacity:0;fill:rgba(0, 0, 0, 255);stroke:rgba(0, 0, 0, 255);stroke-width:2" />
	<text x="222" y="220" style="fill: rgba(0, 0, 0, 255);font-family:Arial;font-size:12px;text-anchor:end" dominant-baseline="middle" transform="rotate(0, 222, 220)">gpsTX</text>
	<line x1="233" y1="220" x2="360" y2="220" style="stroke:rgba(0, 0, 0, 255);stroke-linecap:square;stroke-width:2" />
	<ellipse cx="230" cy="220" rx="3" ry="3" style="fill-opacity:0;fill:rgba(0, 0, 0, 255);stroke:rgba(0, 0, 0, 255);stroke-width:2" />
	<line x1="340" y1="310" x2="360" y2="310" style="stroke:rgba(0, 0, 0, 255);stroke-linecap:square;stroke-width:2" />
	<line x1="340" y1="310" x2="340" y2="342" style="stroke:rgba(0, 0, 0, 255);stroke-linecap:square;stroke-width:2" />
	<path d="M 332,342 L 348,342 L 340,350 L 332,342" style="fill-opacity:0;fill:rgba(0, 0, 0, 255);stroke:rgba(0, 0, 0, 255);stroke-linecap:square;stroke-width:2" />
	<text x="332" y="290" style="fill: rgba(0, 0, 0, 255);font-family:Arial;font-size:12px;text-anchor:end" dominant-baseline="middle" transform="rotate(0, 332, 290)">+5v</text>
	<line x1="343" y1="290" x2="360" y2="290" style="stroke:rgba(0, 0, 0, 255);stroke-linecap:square;stroke-width:2" />
	<ellipse cx="340" cy="290" rx="3" ry="3" style="fill-opacity:0;fill:rgba(0, 0, 0, 255);stroke:rgba(0, 0, 0, 255);stroke-width:2" />
	<rect x="355" y="170" width="90" height="160" style="fill-opacity:0;fill:rgba(0, 0, 0, 255);stroke:rgba(0, 0, 0, 255);stroke-width:2" />
	<rect x="388" y="170" width="24" height="28" style="fill-opacity:0;fill:rgba(0, 0, 0, 255);stroke:rgba(0, 0, 0, 255);stroke-width:2" />
	<rect x="385" y="298" width="30" height="28" style="fill-opacity:0;fill:rgba(0, 0, 0, 255);stroke:rgba(0, 0, 0, 255);stroke-width:2" />
	<ellipse cx="390" cy="320" rx="2" ry="2" style="fill-opacity:0;fill:rgba(0, 0, 0, 255);stroke:rgba(0, 0, 0, 255);stroke-width:2" />
	<ellipse cx="400" cy="320" rx="2" ry="2" style="fill-opacity:0;fill:rgba(0, 0, 0, 255);stroke:rgba(0, 0, 0, 255);stroke-width:2" />
	<ellipse cx="410" cy="320" rx="2" ry="2" style="fill-opacity:0;fill:rgba(0, 0, 0, 255);stroke:rgba(0, 0, 0, 255);stroke-width:2" />
	<ellipse cx="390" cy="305" rx="2" ry="2" style="fill-opacity:0;fill:rgba(0, 0, 0, 255);stroke:rgba(0, 0, 0, 255);stroke-width:2" />
	<ellipse cx="400" cy="305" rx="2" ry="2" style="fill-opacity:0;fill:rgba(0, 0, 0, 255);stroke:rgba(0, 0, 0, 255);stroke-width:2" />
	<ellipse cx="410" cy="305" rx="2" ry="2" style="fill-opacity:0;fill:rgba(0, 0, 0, 255);stroke:rgba(0, 0, 0, 255);stroke-width:2" />
	<line x1="360" y1="180" x2="355" y2="180" style="stroke:rgba(0, 0, 0, 255);stroke-linecap:square;stroke-width:2" />
	<line x1="360" y1="190" x2="355" y2="190" style="stroke:rgba(0, 0, 0, 255);stroke-linecap:square;stroke-width:2" />
	<line x1="360" y1="200" x2="355" y2="200" style="stroke:rgba(0, 0, 0, 255);stroke-linecap:square;stroke-width:2" />
	<line x1="360" y1="210" x2="355" y2="210" style="stroke:rgba(0, 0, 0, 255);stroke-linecap:square;stroke-width:2" />
	<line x1="360" y1="220" x2="355" y2="220" style="stroke:rgba(0, 0, 0, 255);stroke-linecap:square;stroke-width:2" />
	<line x1="360" y1="230" x2="355" y2="230" style="stroke:rgba(0, 0, 0, 255);stroke-linecap:square;stroke-width:2" />
	<line x1="360" y1="240" x2="355" y2="240" style="stroke:rgba(0, 0, 0, 255);stroke-linecap:square;stroke-width:2" />
	<line x1="360" y1="250" x2="355" y2="250" style="stroke:rgba(0, 0, 0, 255);stroke-linecap:square;stroke-width:2" />
	<line x1="360" y1="260" x2="355" y2="260" style="stroke:rgba(0, 0, 0, 255);stroke-linecap:square;stroke-width:2" />
	<line x1="360" y1="270" x2="355" y2="270" style="stroke:rgba(0, 0, 0, 255);stroke-linecap:square;stroke-width:2" />
	<line x1="360" y1="280" x2="355" y2="280" style="stroke:rgba(0, 0, 0, 255);stroke-linecap:square;stroke-width:2" />
	<line x1="360" y1="290" x2="355" y2="290" style="stroke:rgba(0, 0, 0, 255);stroke-linecap:square;stroke-width:2" />
	<line x1="360" y1="300" x2="355" y2="300" style="stroke:rgba(0, 0, 0, 255);stroke-linecap:square;stroke-width:2" />
	<line x1="360" y1="310" x2="355" y2="310" style="stroke:rgba(0, 0, 0, 255);stroke-linecap:square;stroke-width:2" />
	<line x1="360" y1="320" x2="355" y2="320" style="stroke:rgba(0, 0, 0, 255);stroke-linecap:square;stroke-width:2" />
	<line x1="445" y1="180" x2="440" y2="180" style="stroke:rgba(0, 0, 0, 255);stroke-linecap:square;stroke-width:2" />
	<line x1="445" y1="190" x2="440" y2="190" style="stroke:rgba(0, 0, 0, 255);stroke-linecap:square;stroke-width:2" />
	<line x1="445" y1="200" x2="440" y2="200" style="stroke:rgba(0, 0, 0, 255);stroke-linecap:square;stroke-width:2" />
	<line x1="445" y1="210" x2="440" y2="210" style="stroke:rgba(0, 0, 0, 255);stroke-linecap:square;stroke-width:2" />
	<line x1="445" y1="220" x2="440" y2="220" style="stroke:rgba(0, 0, 0, 255);stroke-linecap:square;stroke-width:2" />
	<line x1="445" y1="230" x2="440" y2="230" style="stroke:rgba(0, 0, 0, 255);stroke-linecap:square;stroke-width:2" />
	<line x1="445" y1="240" x2="440" y2="240" style="stroke:rgba(0, 0, 0, 255);stroke-linecap:square;stroke-width:2" />
	<line x1="445" y1="250" x2="440" y2="250" style="stroke:rgba(0, 0, 0, 255);stroke-linecap:square;stroke-width:2" />
	<line x1="445" y1="260" x2="440" y2="260" style="stroke:rgba(0, 0, 0, 255);stroke-linecap:square;stroke-width:2" />
	<line x1="445" y1="270" x2="440" y2="270" style="stroke:rgba(0, 0, 0, 255);stroke-linecap:square;stroke-width:2" />
	<line x1="445" y1="280" x2="440" y2="280" style="stroke:rgba(0, 0, 0, 255);stroke-linecap:square;stroke-width:2" />
	<line x1="445" y1="290" x2="440" y2="290" style="stroke:rgba(0, 0, 0, 255);stroke-linecap:square;stroke-width:2" />
	<line x1="445" y1="300" x2="440" y2="300" style="stroke:rgba(0, 0, 0, 255);stroke-linecap:square;stroke-width:2" />
	<line x1="445" y1="310" x2="440" y2="310" style="stroke:rgba(0, 0, 0, 255);stroke-linecap:square;stroke-width:2" />
	<line x1="445" y1="320" x2="440" y2="320" style="stroke:rgba(0, 0, 0, 255);stroke-linecap:square;stroke-width:2" />
	<text x="400" y="220" style="fill: rgba(0, 0, 0, 255);font-family:Arial;font-size:11px;text-anchor:middle" dominant-baseline="middle" transform="rotate(0, 400, 220)">Arduino</text>
	<text x="400" y="230" style="fill: rgba(0, 0, 0, 255);font-family:Arial;font-size:11px;text-anchor:middle" dominant-baseline="middle" transform="rotate(0, 400, 230)">Nano</text>
	<text x="358" y="180" style="fill: rgba(0, 0, 0, 255);font-family:Arial;font-size:11px;text-anchor:start" dominant-baseline="middle" transform="rotate(0, 358, 180)">D13</text>
	<text x="358" y="190" style="fill: rgba(0, 0, 0, 255);font-family:Arial;font-size:11px;text-anchor:start" dominant-baseline="middle" transform="rotate(0, 358, 190)">3V3</text>
	<text x="358" y="200" style="fill: rgba(0, 0, 0, 255);font-family:Arial;font-size:11px;text-anchor:start" dominant-baseline="middle" transform="rotate(0, 358, 200)">REF</text>
	<text x="358" y="210" style="fill: rgba(0, 0, 0, 255);font-family:Arial;font-size:11px;text-anchor:start" dominant-baseline="middle" transform="rotate(0, 358, 210)">A0 </text>
	<text x="358" y="220" style="fill: rgba(0, 0, 0, 255);font-family:Arial;font-size:11px;text-anchor:start" dominant-baseline="middle" transform="rotate(0, 358, 220)">A1 </text>
	<text x="358" y="230" style="fill: rgba(0, 0, 0, 255);font-family:Arial;font-size:11px;text-anchor:start" dominant-baseline="middle" transform="rotate(0, 358, 230)">A2 </text>
	<text x="358" y="240" style="fill: rgba(0, 0, 0, 255);font-family:Arial;font-size:11px;text-anchor:start" dominant-baseline="middle" transform="rotate(0, 358, 240)">A3 </text>
	<text x="358" y="250" style="fill: rgba(0, 0, 0, 255);font-family:Arial;font-size:11px;text-anchor:start" dominant-baseline="middle" transform="rotate(0, 358, 250)">A4 </text>
	<text x="358" y="260" style="fill: rgba(0, 0, 0, 255);font-family:Arial;font-size:11px;text-anchor:start" dominant-baseline="middle" transform="rotate(0, 358, 260)">A5 </text>
	<text x="358" y="270" style="fill: rgba(0, 0, 0, 255);font-family:Arial;font-size:11px;text-anchor:start" dominant-baseline="middle" transform="rotate(0, 358, 270)">A6 </text>
	<text x="358" y="280" style="fill: rgba(0, 0, 0, 255);font-family:Arial;font-size:11px;text-anchor:start" dominant-baseline="middle" transform="rotate(0, 358, 280)">A7 </text>
	<text x="358" y="290" style="fill: rgba(0, 0, 0, 255);font-family:Arial;font-size:11px;text-anchor:start" dominant-baseline="middle" transform="rotate(0, 358, 290)">5V </text>
	<text x="358" y="300" style="fill: rgba(0, 0, 0, 255);font-family:Arial;font-size:11px;text-anchor:start" dominant-baseline="middle" transform="rotate(0, 358, 300)">RST</text>
	<text x="358" y="310" style="fill: rgba(0, 0, 0, 255);font-family:Arial;font-size:11px;text-anchor:start" dominant-baseline="middle" transform="rotate(0, 358, 310)">GND</text>
	<text x="358" y="320" style="fill: rgba(0, 0, 0, 255);font-family:Arial;font-size:11px;text-anchor:start" dominant-baseline="middle" transform="rotate(0, 358, 320)">VIN</text>
	<text x="442" y="180" style="fill: rgba(0, 0, 0, 255);font-family:Arial;font-size:11px;text-anchor:end" dominant-baseline="middle" transform="rotate(0, 442, 180)">D12</text>
	<text x="442" y="190" style="fill: rgba(0, 0, 0, 255);font-family:Arial;font-size:11px;text-anchor:end" dominant-baseline="middle" transform="rotate(0, 442, 190)">D11</text>
	<text x="442" y="200" style="fill: rgba(0, 0, 0, 255);font-family:Arial;font-size:11px;text-anchor:end" dominant-baseline="middle" transform="rotate(0, 442, 200)">D10</text>
	<text x="442" y="210" style="fill: rgba(0, 0, 0, 255);font-family:Arial;font-size:11px;text-anchor:end" dominant-baseline="middle" transform="rotate(0, 442, 210)">D9</text>
	<text x="442" y="220" style="fill: rgba(0, 0, 0, 255);font-family:Arial;font-size:11px;text-anchor:end" dominant-baseline="middle" transform="rotate(0, 442, 220)">D8</text>
	<text x="442" y="230" style="fill: rgba(0, 0, 0, 255);font-family:Arial;font-size:11px;text-anchor:end" dominant-baseline="middle" transform="rotate(0, 442, 230)">D7</text>
	<text x="442" y="240" style="fill: rgba(0, 0, 0, 255);font-family:Arial;font-size:11px;text-anchor:end" dominant-baseline="middle" transform="rotate(0, 442, 240)">D6</text>
	<text x="442" y="250" style="fill: rgba(0, 0, 0, 255);font-family:Arial;font-size:11px;text-anchor:end" dominant-baseline="middle" transform="rotate(0, 442, 250)">D5</text>
	<text x="442" y="260" style="fill: rgba(0, 0, 0, 255);font-family:Arial;font-size:11px;text-anchor:end" dominant-baseline="middle" transform="rotate(0, 442, 260)">D4</text>
	<text x="442" y="270" style="fill: rgba(0, 0, 0, 255);font-family:Arial;font-size:11px;text-anchor:end" dominant-baseline="middle" transform="rotate(0, 442, 270)">D3</text>
	<text x="442" y="280" style="fill: rgba(0, 0, 0, 255);font-family:Arial;font-size:11px;text-anchor:end" dominant-baseline="middle" transform="rotate(0, 442, 280)">D2</text>
	<text x="442" y="290" style="fill: rgba(0, 0, 0, 255);font-family:Arial;font-size:11px;text-anchor:end" dominant-baseline="middle" transform="rotate(0, 442, 290)">GND</text>
	<text x="442" y="300" style="fill: rgba(0, 0, 0, 255);font-family:Arial;font-size:11px;text-anchor:end" dominant-baseline="middle" transform="rotate(0, 442, 300)">RST</text>
	<text x="442" y="310" style="fill: rgba(0, 0, 0, 255);font-family:Arial;font-size:11px;text-anchor:end" dominant-baseline="middle" transform="rotate(0, 442, 310)">RX0</text>
	<text x="442" y="320" style="fill: rgba(0, 0, 0, 255);font-family:Arial;font-size:11px;text-anchor:end" dominant-baseline="middle" transform="rotate(0, 442, 320)">TX1</text>
	<line x1="120" y1="420" x2="120" y2="430" style="stroke:rgba(0, 0, 0, 255);stroke-linecap:square;stroke-width:2" />
	<line x1="120" y1="260" x2="120" y2="280" style="stroke:rgba(0, 0, 0, 255);stroke-linecap:square;stroke-width:2" />
	<line x1="120" y1="330" x2="120" y2="370" style="stroke:rgba(0, 0, 0, 255);stroke-linecap:square;stroke-width:2" />
	<text x="148" y="350" style="fill: rgba(0, 0, 0, 255);font-family:Arial;font-size:12px;text-anchor:start" dominant-baseline="middle" transform="rotate(0, 148, 350)">voltage</text>
	<line x1="120" y1="350" x2="137" y2="350" style="stroke:rgba(0, 0, 0, 255);stroke-linecap:square;stroke-width:2" />
	<ellipse cx="140" cy="350" rx="3" ry="3" style="fill-opacity:0;fill:rgba(0, 0, 0, 255);stroke:rgba(0, 0, 0, 255);stroke-width:2" />
	<line x1="120" y1="430" x2="120" y2="432" style="stroke:rgba(0, 0, 0, 255);stroke-linecap:square;stroke-width:2" />
	<path d="M 112,432 L 128,432 L 120,440 L 112,432" style="fill-opacity:0;fill:rgba(0, 0, 0, 255);stroke:rgba(0, 0, 0, 255);stroke-linecap:square;stroke-width:2" />
	<line x1="120" y1="370" x2="120" y2="375" style="stroke:rgba(0, 0, 0, 255);stroke-linecap:square;stroke-width:2" />
	<line x1="120" y1="415" x2="120" y2="420" style="stroke:rgba(0, 0, 0, 255);stroke-linecap:square;stroke-width:2" />
	<rect x="112" y="375" width="16" height="40" style="fill-opacity:0;fill:rgba(0, 0, 0, 255);stroke:rgba(0, 0, 0, 255);stroke-width:2" />
	<text x="106" y="395" style="fill: rgba(0, 0, 0, 255);font-family:Arial;font-size:11px;text-anchor:end" dominant-baseline="middle" transform="rotate(0, 106, 395)">10 kΩ</text>
	<line x1="120" y1="280" x2="120" y2="285" style="stroke:rgba(0, 0, 0, 255);stroke-linecap:square;stroke-width:2" />
	<line x1="120" y1="325" x2="120" y2="330" style="stroke:rgba(0, 0, 0, 255);stroke-linecap:square;stroke-width:2" />
	<rect x="112" y="285" width="16" height="40" style="fill-opacity:0;fill:rgba(0, 0, 0, 255);stroke:rgba(0, 0, 0, 255);stroke-width:2" />
	<text x="106" y="305" style="fill: rgba(0, 0, 0, 255);font-family:Arial;font-size:11px;text-anchor:end" dominant-baseline="middle" transform="rotate(0, 106, 305)">110 kΩ</text>
	<text x="92" y="260" style="fill: rgba(0, 0, 0, 255);font-family:Arial;font-size:12px;text-anchor:end" dominant-baseline="middle" transform="rotate(0, 92, 260)">V_battery</text>
	<line x1="103" y1="260" x2="120" y2="260" style="stroke:rgba(0, 0, 0, 255);stroke-linecap:square;stroke-width:2" />
	<ellipse cx="100" cy="260" rx="3" ry="3" style="fill-opacity:0;fill:rgba(0, 0, 0, 255);stroke:rgba(0, 0, 0, 255);stroke-width:2" />
	<ellipse cx="660" cy="100" rx="2" ry="2" style="fill-opacity:1;fill:rgb(0, 0, 0);stroke:rgb(0, 0, 0);stroke-width:2" />
	<ellipse cx="660" cy="260" rx="2" ry="2" style="fill-opacity:1;fill:rgb(0, 0, 0);stroke:rgb(0, 0, 0);stroke-width:2" />
	<ellipse cx="660" cy="350" rx="2" ry="2" style="fill-opacity:1;fill:rgb(0, 0, 0);stroke:rgb(0, 0, 0);stroke-width:2" />
	<ellipse cx="120" cy="350" rx="2" ry="2" style="fill-opacity:1;fill:rgba(0, 0, 0, 255);stroke:rgba(0, 0, 0, 255);stroke-width:2" />
</svg>